<svg width="16" height="16" viewBox="0 0 16 16" fill="none" xmlns="http://www.w3.org/2000/svg">
<path d="M14.5 7V9.39999C14.5 12.7137 11.8137 15.4 8.5 15.4H7.5C4.18629 15.4 1.5 12.7137 1.5 9.39999V7" stroke="white" stroke-linecap="round"/>
<path d="M6 13.4023C6 12.2978 6.89543 11.4023 8 11.4023V11.4023C9.10457 11.4023 10 12.2978 10 13.4023V15.4023H6V13.4023Z" stroke="white"/>
<path d="M0.972135 2.59062C1.10191 1.45511 2.06294 0.597656 3.20584 0.597656H6.5L5.81465 5.39513C5.6341 6.65893 4.55174 7.59766 3.27511 7.59766V7.59766C1.74293 7.59766 0.552398 6.26332 0.726372 4.74105L0.972135 2.59062Z" stroke="white"/>
<path d="M6.5 0.597656H9.5L10.1464 5.12279C10.333 6.429 9.31948 7.59766 8 7.59766V7.59766C6.68052 7.59766 5.66695 6.429 5.85355 5.12278L6.5 0.597656Z" stroke="white"/>
<path d="M9.5 0.597656H12.7941C13.937 0.597656 14.898 1.45511 15.0278 2.59062L15.2735 4.7411C15.4475 6.26334 14.257 7.59766 12.7249 7.59766V7.59766C11.4482 7.59766 10.3659 6.65895 10.1854 5.39517L9.5 0.597656Z" stroke="white"/>
</svg>
