<svg width="18" height="18" viewBox="0 0 18 18" fill="none" xmlns="http://www.w3.org/2000/svg">
<path d="M10.8501 16.3977H12.7001V16.3977C14.7436 16.3977 16.4001 14.7411 16.4001 12.6977V12.6977V10.8477M7.1501 16.3977H5.3001V16.3977C3.25664 16.3977 1.6001 14.7411 1.6001 12.6977V12.6977V10.8477M1.6001 7.14766V5.29766V5.29766C1.6001 3.2542 3.25664 1.59766 5.3001 1.59766V1.59766H7.1501M16.4001 7.14766V5.29766V5.29766C16.4001 3.2542 14.7436 1.59766 12.7001 1.59766V1.59766H10.8501" stroke="white" stroke-width="1.5" stroke-linecap="round" stroke-linejoin="round"/>
<rect x="4" y="4" width="4" height="4" rx="2" stroke="white" stroke-width="1.5"/>
<rect x="10" y="4" width="4" height="4" rx="2" stroke="white" stroke-width="1.5"/>
<rect x="4" y="10" width="4" height="4" rx="2" stroke="white" stroke-width="1.5"/>
<rect x="10" y="10" width="4" height="4" rx="2" stroke="white" stroke-width="1.5"/>
</svg>
