<svg width="16" height="16" viewBox="0 0 16 16" fill="none" xmlns="http://www.w3.org/2000/svg">
<path d="M12 4.77203C11.96 4.76537 11.9133 4.76537 11.8733 4.77203C10.9533 4.7387 10.22 3.98537 10.22 3.05203C10.22 2.0987 10.9866 1.33203 11.94 1.33203C12.8933 1.33203 13.66 2.10537 13.66 3.05203C13.6533 3.98537 12.92 4.7387 12 4.77203Z" stroke="white" stroke-width="1.5" stroke-linecap="round" stroke-linejoin="round"/>
<path d="M11.3133 9.62547C12.2267 9.77881 13.2333 9.6188 13.94 9.14547C14.88 8.5188 14.88 7.49214 13.94 6.86547C13.2267 6.39214 12.2067 6.23214 11.2933 6.39214" stroke="white" stroke-width="1.5" stroke-linecap="round" stroke-linejoin="round"/>
<path d="M3.97995 4.77203C4.01995 4.76537 4.06661 4.76537 4.10661 4.77203C5.02661 4.7387 5.75995 3.98537 5.75995 3.05203C5.75995 2.0987 4.99328 1.33203 4.03995 1.33203C3.08661 1.33203 2.31995 2.10537 2.31995 3.05203C2.32661 3.98537 3.05995 4.7387 3.97995 4.77203Z" stroke="white" stroke-width="1.5" stroke-linecap="round" stroke-linejoin="round"/>
<path d="M4.66663 9.62547C3.75329 9.77881 2.74663 9.6188 2.03996 9.14547C1.09996 8.5188 1.09996 7.49214 2.03996 6.86547C2.75329 6.39214 3.77329 6.23214 4.68663 6.39214" stroke="white" stroke-width="1.5" stroke-linecap="round" stroke-linejoin="round"/>
<path d="M7.99997 9.7525C7.95997 9.74584 7.9133 9.74584 7.8733 9.7525C6.9533 9.71917 6.21997 8.96583 6.21997 8.0325C6.21997 7.07917 6.98664 6.3125 7.93997 6.3125C8.8933 6.3125 9.65997 7.08583 9.65997 8.0325C9.6533 8.96583 8.91997 9.72584 7.99997 9.7525Z" stroke="white" stroke-width="1.5" stroke-linecap="round" stroke-linejoin="round"/>
<path d="M6.05998 11.8542C5.11998 12.4809 5.11998 13.5076 6.05998 14.1342C7.12665 14.8476 8.87331 14.8476 9.93998 14.1342C10.88 13.5076 10.88 12.4809 9.93998 11.8542C8.87998 11.1476 7.12665 11.1476 6.05998 11.8542Z" stroke="white" stroke-width="1.5" stroke-linecap="round" stroke-linejoin="round"/>
</svg>
