<svg width="14" height="14" viewBox="0 0 14 14" fill="none" xmlns="http://www.w3.org/2000/svg">
<path d="M5.48687 0.857357C6.33354 0.18469 7.5202 0.158023 8.39287 0.777357L8.5002 0.857357L12.5595 4.10469C13.0062 4.45069 13.2802 4.96469 13.3269 5.52402L13.3335 5.65802V11.064C13.3335 12.4574 12.2329 13.5907 10.8535 13.664H9.52687C8.89287 13.6514 8.3802 13.158 8.33354 12.538L8.32687 12.444V10.538C8.32687 10.3307 8.17287 10.158 7.96687 10.124L7.90687 10.1174H6.1262C5.91354 10.124 5.7402 10.2774 5.71354 10.4774L5.70687 10.538V12.438C5.70687 12.4774 5.69954 12.524 5.69354 12.5574L5.68687 12.5714L5.67954 12.6174C5.6002 13.1847 5.13354 13.6174 4.55354 13.658L4.46687 13.664H3.27354C1.8802 13.664 0.740203 12.5714 0.66687 11.1974V5.65802C0.67287 5.09069 0.920203 4.56402 1.33354 4.19736L5.48687 0.857357ZM7.9202 1.58402C7.41354 1.17736 6.69354 1.15802 6.1602 1.51069L6.05954 1.58402L2.0062 4.85136C1.77354 5.02402 1.63354 5.28402 1.6002 5.55736L1.59287 5.66402V11.064C1.59287 11.9507 2.2862 12.6774 3.16687 12.7307H4.46687C4.61354 12.7307 4.7402 12.6314 4.75954 12.4914L4.77354 12.3714L4.7802 12.3374V10.538C4.7802 9.82469 5.32687 9.24469 6.02687 9.19069H7.90687C8.61954 9.19069 9.19954 9.73802 9.25354 10.438V12.444C9.25354 12.584 9.35354 12.7047 9.48687 12.7307H10.7262C11.6195 12.7307 12.3462 12.0447 12.3995 11.1707L12.4069 11.064V5.66402C12.3995 5.37802 12.2802 5.11069 12.0735 4.91136L11.9869 4.83736L7.9202 1.58402Z" fill="#002B5D"/>
</svg>
