<svg width="14" height="14" viewBox="0 0 14 14" fill="none" xmlns="http://www.w3.org/2000/svg">
<path d="M8.3007 0.811778L8.42225 0.925115L8.90141 1.40428C9.066 1.56809 9.28189 1.66909 9.51154 1.69178L9.61069 1.69667H10.296C11.3652 1.69667 12.2395 2.53278 12.3006 3.5867L12.304 3.70467V4.38934C12.304 4.62253 12.3844 4.84672 12.5295 5.02497L12.5956 5.09845L13.0748 5.57765C13.8291 6.32858 13.8628 7.52945 13.1717 8.32083L13.0816 8.41755L12.596 8.90313C12.4327 9.06684 12.3316 9.28289 12.3089 9.51231L12.304 9.61133V10.2973C12.304 11.3665 11.468 12.2402 10.414 12.3013L10.296 12.3047H9.61069C9.37833 12.3047 9.15386 12.3854 8.9755 12.5309L8.902 12.5971L8.42345 13.075C7.67332 13.8303 6.47159 13.8638 5.6799 13.1724L5.57714 13.0762L5.09907 12.5981C4.93347 12.4337 4.71718 12.3323 4.48817 12.3096L4.38936 12.3047H3.70336C2.63461 12.3047 1.76051 11.469 1.69944 10.4153L1.69603 10.2973V9.61133C1.69603 9.37935 1.61516 9.15465 1.46978 8.97663L1.40356 8.90331L0.925477 8.42455C0.170427 7.67376 0.136935 6.47201 0.828282 5.68111L0.918476 5.58445L1.40256 5.09971C1.56719 4.9339 1.6684 4.71802 1.69114 4.48845L1.69603 4.38934V3.70467L1.69944 3.58671C1.75825 2.57194 2.57103 1.75891 3.58545 1.70008L3.70336 1.69667H4.38936C4.62168 1.69667 4.8462 1.61608 5.02422 1.47129L5.09756 1.40536L5.57634 0.925917C6.32725 0.171598 7.52887 0.138389 8.3007 0.811778ZM6.36097 1.56252L6.28449 1.63198L5.80366 2.11347C5.45883 2.45587 5.00275 2.66058 4.52125 2.69233L4.38936 2.69667H3.70336C3.17832 2.69667 2.74651 3.09944 2.70015 3.61296L2.69603 3.70467V4.38934C2.69603 4.87545 2.51962 5.34288 2.20143 5.70825L2.11116 5.80531L1.62638 6.29075C1.25851 6.6603 1.23709 7.24408 1.56219 7.64011L1.63183 7.71669L2.11133 8.19687C2.45427 8.54062 2.6598 8.9975 2.69167 9.47936L2.69603 9.61133V10.2973C2.69603 10.8227 3.0985 11.2542 3.61171 11.3006L3.70336 11.3047H4.38936C4.87456 11.3047 5.34239 11.4813 5.70785 11.7995L5.80492 11.8898L6.28712 12.372C6.65927 12.742 7.24321 12.7636 7.63888 12.4385L7.71539 12.3689L8.19598 11.8889C8.54046 11.5461 8.99674 11.3408 9.47868 11.309L9.61069 11.3047H10.296C10.8218 11.3047 11.2536 10.9024 11.2999 10.389L11.304 10.2973V9.61133C11.304 9.12544 11.4806 8.65677 11.7983 8.29299L11.8885 8.19645L12.3735 7.71145C12.7414 7.34148 12.7627 6.75799 12.438 6.36211L12.3685 6.28555L11.8872 5.8043C11.5446 5.45925 11.3401 5.00363 11.3084 4.52144L11.304 4.38934V3.70467C11.304 3.17906 10.9013 2.74716 10.3878 2.70079L10.296 2.69667H9.61069C9.12458 2.69667 8.65655 2.52041 8.29195 2.20243L8.19514 2.11222L7.73651 1.65237L7.70994 1.62769C7.34043 1.25985 6.75652 1.23831 6.36097 1.56252ZM9.06429 8.3624C9.11096 8.40907 9.15096 8.4624 9.17763 8.5224C9.19763 8.5824 9.21096 8.64907 9.21096 8.71573C9.21096 8.78307 9.19763 8.8424 9.17763 8.9024C9.15096 8.9624 9.11096 9.0224 9.06429 9.06907C8.97096 9.1624 8.8443 9.21573 8.71096 9.21573C8.57763 9.21573 8.45096 9.1624 8.35763 9.06907C8.31096 9.0224 8.27763 8.9624 8.25096 8.9024C8.2243 8.8424 8.21096 8.78307 8.21096 8.71573C8.21096 8.64907 8.2243 8.5824 8.25096 8.5224C8.27763 8.4624 8.31096 8.40907 8.35763 8.3624C8.5443 8.17573 8.87763 8.17573 9.06429 8.3624ZM9.06672 4.93358C9.24423 5.11109 9.26036 5.38887 9.11513 5.58461L9.06672 5.64069L5.64005 9.06735C5.44479 9.26262 5.1282 9.26262 4.93294 9.06735C4.75543 8.88984 4.73929 8.61207 4.88453 8.41633L4.93294 8.36025L8.35961 4.93358C8.55487 4.73832 8.87145 4.73832 9.06672 4.93358ZM5.63756 4.936C5.7309 5.02867 5.78423 5.156 5.78423 5.28933C5.78423 5.356 5.77756 5.41534 5.7509 5.476C5.72423 5.536 5.68423 5.58933 5.63756 5.64267C5.5909 5.68933 5.53756 5.722 5.47756 5.74867C5.41756 5.77533 5.3509 5.78933 5.28423 5.78933C5.21756 5.78933 5.15756 5.77533 5.09756 5.74867C5.03756 5.722 4.97756 5.68933 4.9309 5.64267C4.88423 5.58933 4.8509 5.536 4.82423 5.476C4.79756 5.41534 4.78423 5.356 4.78423 5.28933C4.78423 5.222 4.79756 5.156 4.82423 5.096C4.8509 5.036 4.88423 4.976 4.9309 4.936C5.12423 4.74867 5.4509 4.74867 5.63756 4.936Z" fill="white"/>
</svg>
