<svg width="16" height="16" viewBox="0 0 16 16" fill="none" xmlns="http://www.w3.org/2000/svg">
<path d="M12 12.572H11.4933C10.96 12.572 10.4533 12.7787 10.08 13.152L8.93998 14.2787C8.41998 14.792 7.57334 14.792 7.05334 14.2787L5.91333 13.152C5.54 12.7787 5.02667 12.572 4.5 12.572H4C2.89333 12.572 2 11.6854 2 10.592V3.31203C2 2.2187 2.89333 1.33203 4 1.33203H12C13.1067 1.33203 14 2.2187 14 3.31203V10.5854C14 11.6787 13.1067 12.572 12 12.572Z" stroke="white" stroke-width="1.5" stroke-miterlimit="10" stroke-linecap="round" stroke-linejoin="round"/>
<path d="M8.04671 5.96719C8.02005 5.96719 7.98003 5.96719 7.9467 5.96719C7.2467 5.94052 6.69336 5.37385 6.69336 4.66719C6.69336 3.94719 7.27337 3.36719 7.99337 3.36719C8.71337 3.36719 9.29338 3.95385 9.29338 4.66719C9.30004 5.37385 8.74671 5.94719 8.04671 5.96719Z" stroke="white" stroke-width="1.5" stroke-linecap="round" stroke-linejoin="round"/>
<path d="M6.16671 7.97266C5.28004 8.56599 5.28004 9.53266 6.16671 10.126C7.17338 10.7993 8.82671 10.7993 9.83338 10.126C10.72 9.53266 10.72 8.56599 9.83338 7.97266C8.82671 7.30599 7.18004 7.30599 6.16671 7.97266Z" stroke="white" stroke-width="1.5" stroke-linecap="round" stroke-linejoin="round"/>
</svg>
